<svg width="130" height="130" viewBox="0 0 80 80" fill="none" xmlns="http://www.w3.org/2000/svg">
<g id="Group 20">
<path id="Polygon 2" d="M36.5 2.02073C38.6658 0.770296 41.3342 0.770296 43.5 2.02073L71.141 17.9793C73.3068 19.2297 74.641 21.5406 74.641 24.0415V55.9585C74.641 58.4594 73.3068 60.7703 71.141 62.0207L43.5 77.9793C41.3342 79.2297 38.6658 79.2297 36.5 77.9793L8.85898 62.0207C6.69317 60.7703 5.35898 58.4594 5.35898 55.9585V24.0415C5.35898 21.5406 6.69317 19.2297 8.85898 17.9793L36.5 2.02073Z" fill="#2F80ED"/>
<path id="Vector" d="M46.3784 23.0229C44.0024 22.1731 41.4708 21.8469 38.9569 22.0664C36.443 22.286 34.0063 23.0463 31.8137 24.2951C28.6742 26.0913 26.1681 28.8154 24.6398 32.0933C23.1115 35.3711 22.636 39.0417 23.2785 42.6006L33.6685 40.7284C33.1672 37.9221 34.4417 34.9736 37.0553 33.483C38.8839 32.4402 40.9935 32.3248 42.8358 32.9864L46.3784 23.0229ZM50.2407 24.9862L44.363 33.7578C45.2219 34.3344 45.9639 35.1117 46.5102 36.069C48.4029 39.3868 47.242 43.6297 43.9236 45.5222C40.7314 47.3428 36.6833 46.3376 34.695 43.305L25.8673 49.0974C28.3096 52.8187 32.0777 55.4702 36.4055 56.5128C40.7333 57.5555 45.2958 56.9109 49.1652 54.7102C53.1992 52.4097 56.1539 48.6011 57.3794 44.1224C58.6048 39.6437 58.0006 34.8617 55.6996 30.8284C54.355 28.4861 52.4866 26.4865 50.2407 24.9862ZM42.9799 34.4631C41.364 33.6649 39.3945 33.6606 37.7059 34.6236C35.5105 35.8756 34.4814 38.368 34.9992 40.7076C35.1186 41.2474 35.3205 41.779 35.6094 42.2854C37.1506 44.9869 40.571 45.9226 43.2729 44.3817C45.9747 42.8409 46.9105 39.4211 45.3695 36.7196C44.7916 35.7066 43.9494 34.9419 42.98 34.463L42.9799 34.4631ZM41.8412 36.9167C42.3368 37.1756 42.7475 37.5714 43.0245 38.057C43.408 38.7292 43.5087 39.5262 43.3044 40.2726C43.1002 41.0191 42.6077 41.6538 41.9354 42.0373C41.2631 42.4206 40.466 42.5212 39.7195 42.317C38.973 42.1128 38.3382 41.6205 37.9547 40.9484C37.8097 40.6945 37.7037 40.4202 37.6402 40.1348C37.5052 39.5263 37.5686 38.8906 37.8211 38.3208C38.0736 37.7509 38.5019 37.2769 39.0434 36.9681C39.4681 36.7259 39.9469 36.5942 40.4358 36.5852C40.9247 36.5763 41.408 36.6902 41.8413 36.9167H41.8412ZM33.8735 41.5681L23.8015 44.718C24.061 45.572 24.3854 46.4048 24.7719 47.2093L34.2666 42.554C34.1083 42.2317 33.9777 41.902 33.8735 41.5681Z" fill="white"/>
</g>
</svg>
