<svg width="130" height="130" viewBox="0 0 80 80" fill="none" xmlns="http://www.w3.org/2000/svg">
<g id="Group 18">
<path id="Polygon 6" d="M36.5 2.02073C38.6658 0.770296 41.3342 0.770296 43.5 2.02073L71.141 17.9793C73.3068 19.2297 74.641 21.5406 74.641 24.0415V55.9585C74.641 58.4594 73.3068 60.7703 71.141 62.0207L43.5 77.9793C41.3342 79.2297 38.6658 79.2297 36.5 77.9793L8.85898 62.0207C6.69317 60.7703 5.35898 58.4594 5.35898 55.9585V24.0415C5.35898 21.5406 6.69317 19.2297 8.85898 17.9793L36.5 2.02073Z" fill="#2F80ED"/>
<path id="Vector" d="M58 29.5C58 27.575 56.425 26 54.5 26H26.5C24.575 26 23 27.575 23 29.5V50.5C23 52.425 24.575 54 26.5 54H54.5C56.425 54 58 52.425 58 50.5V29.5ZM54.5 29.5L40.5 38.25L26.5 29.5H54.5ZM54.5 50.5H26.5V33L40.5 41.75L54.5 33V50.5Z" fill="white"/>
</g>
</svg>
