<svg width="130" height="130" viewBox="0 0 80 80" fill="none" xmlns="http://www.w3.org/2000/svg">
<g id="Group 19">
<path id="Polygon 9" d="M36.5 2.02073C38.6658 0.770296 41.3342 0.770296 43.5 2.02073L71.141 17.9793C73.3068 19.2297 74.641 21.5406 74.641 24.0415V55.9585C74.641 58.4594 73.3068 60.7703 71.141 62.0207L43.5 77.9793C41.3342 79.2297 38.6658 79.2297 36.5 77.9793L8.85898 62.0207C6.69317 60.7703 5.35898 58.4594 5.35898 55.9585V24.0415C5.35898 21.5406 6.69317 19.2297 8.85898 17.9793L36.5 2.02073Z" fill="#C64242"/>
<path id="Vector" d="M38.3438 18V60.5244L51.6562 56.5503V21.9743L38.3438 18ZM53.3379 20.5078L53.3438 20.7249V23.4953H54.8438V20.5098L53.3379 20.5078ZM29.1562 20.5098V31.4506H30.8438V22.1891H36.6562V20.5098H29.1562ZM53.3438 25.1746V26.6673H54.8438V25.1746H53.3438ZM53.3438 28.3466V50.3643H54.8438V28.3466H53.3438ZM30.8438 33.8256V37.1164H21.8438V41.408H30.8438V44.6988L36.3068 39.2622L30.8438 33.8256ZM40.875 37.0231C41.4963 37.0231 42 38.0256 42 39.2622C42 40.4988 41.4963 41.5013 40.875 41.5013C40.2537 41.5013 39.75 40.4988 39.75 39.2622C39.75 38.0256 40.2537 37.0231 40.875 37.0231ZM30.8438 47.0738H29.1562V57.1749H30.8438V47.0738ZM53.3438 52.0437V53.3498H54.8438V52.0437H53.3438ZM53.3438 55.0291V57.1749H54.8438V55.0291H53.3438ZM21 59.3207V61H36.6562V59.3207H21ZM48.2486 59.3207L42.6236 61H63V59.3207H48.2486Z" fill="white"/>
</g>
</svg>
