<svg width="130" height="130" viewBox="0 0 80 80" fill="none" xmlns="http://www.w3.org/2000/svg">
<g id="Group 25">
<path id="Polygon 4" d="M36.5 2.02073C38.6658 0.770296 41.3342 0.770296 43.5 2.02073L71.141 17.9793C73.3068 19.2297 74.641 21.5406 74.641 24.0415V55.9585C74.641 58.4594 73.3068 60.7703 71.141 62.0207L43.5 77.9793C41.3342 79.2297 38.6658 79.2297 36.5 77.9793L8.85898 62.0207C6.69317 60.7703 5.35898 58.4594 5.35898 55.9585V24.0415C5.35898 21.5406 6.69317 19.2297 8.85898 17.9793L36.5 2.02073Z" fill="#2F80ED"/>
<path id="Vector" d="M54.5 50.3333H26.5V30.3333H40.5V27H26.5C24.5575 27 23 28.4833 23 30.3333V50.3333C23 51.2174 23.3687 52.0652 24.0251 52.6904C24.6815 53.3155 25.5717 53.6667 26.5 53.6667H33.5V57H47.5V53.6667H54.5C56.425 53.6667 58 52.1667 58 50.3333V45.3333H54.5V50.3333Z" fill="white"/>
<path id="Vector_2" d="M50.2917 41.2083L57.5833 34.75L55.5271 32.9288L51.75 36.2612V27H48.8333V36.2612L45.0562 32.9288L43 34.75L50.2917 41.2083Z" fill="white"/>
</g>
</svg>
