<svg width="130" height="130" viewBox="0 0 80 80" fill="none" xmlns="http://www.w3.org/2000/svg">
<g id="Group 23">
<path id="Polygon 7" d="M36.5 2.02073C38.6658 0.770296 41.3342 0.770296 43.5 2.02073L71.141 17.9793C73.3068 19.2297 74.641 21.5406 74.641 24.0415V55.9585C74.641 58.4594 73.3068 60.7703 71.141 62.0207L43.5 77.9793C41.3342 79.2297 38.6658 79.2297 36.5 77.9793L8.85898 62.0207C6.69317 60.7703 5.35898 58.4594 5.35898 55.9585V24.0415C5.35898 21.5406 6.69317 19.2297 8.85898 17.9793L36.5 2.02073Z" fill="#2F80ED"/>
<path id="Vector" d="M45.327 34.6732C49.4113 38.7617 49.3552 45.3166 45.3516 49.3424C45.3441 49.3506 45.3352 49.3595 45.327 49.3677L40.7333 53.9615C36.6816 58.0131 30.0898 58.0126 26.0387 53.9615C21.9871 49.9105 21.9871 43.3179 26.0387 39.267L28.5753 36.7304C29.2479 36.0578 30.4064 36.5048 30.4411 37.4554C30.4854 38.6669 30.7026 39.884 31.1035 41.0594C31.2393 41.4574 31.1423 41.8976 30.8449 42.195L29.9503 43.0896C28.0344 45.0054 27.9743 48.125 29.8713 50.0595C31.787 52.0132 34.9358 52.0248 36.8662 50.0944L41.4599 45.5013C43.3871 43.5742 43.379 40.4594 41.4599 38.5403C41.2069 38.2878 40.9521 38.0916 40.753 37.9545C40.6122 37.8578 40.4959 37.7296 40.4135 37.5799C40.331 37.4303 40.2847 37.2635 40.2781 37.0928C40.2511 36.3704 40.507 35.6261 41.0778 35.0553L42.517 33.616C42.8945 33.2386 43.4865 33.1922 43.9242 33.4977C44.4253 33.8476 44.8948 34.241 45.327 34.6732ZM54.9613 25.0385C50.9102 20.9874 44.3184 20.9869 40.2667 25.0385L35.673 29.6323C35.6648 29.6405 35.6559 29.6494 35.6484 29.6576C31.6448 33.6834 31.5887 40.2383 35.673 44.3268C36.1052 44.759 36.5746 45.1523 37.0758 45.5023C37.5134 45.8077 38.1055 45.7613 38.4829 45.384L39.9221 43.9447C40.4929 43.3739 40.7489 42.6295 40.7218 41.9071C40.7153 41.7364 40.6689 41.5696 40.5865 41.42C40.504 41.2704 40.3877 41.1421 40.2469 41.0454C40.0478 40.9083 39.793 40.7121 39.54 40.4596C37.6209 38.5406 37.6129 35.4257 39.54 33.4986L44.1337 28.9055C46.0641 26.9752 49.2129 26.9868 51.1286 28.9404C53.0256 30.875 52.9656 33.9945 51.0497 35.9103L50.1551 36.8049C49.8577 37.1023 49.7607 37.5425 49.8964 37.9405C50.2973 39.1159 50.5146 40.333 50.5588 41.5445C50.5936 42.4951 51.752 42.9422 52.4247 42.2695L54.9612 39.733C59.0129 35.6821 59.0129 29.0895 54.9613 25.0385Z" fill="white"/>
</g>
</svg>
