<svg width="130" height="130" viewBox="0 0 80 80" fill="none" xmlns="http://www.w3.org/2000/svg">
<g id="Group 24">
<path id="Polygon 3" d="M36.5 2.02073C38.6658 0.770296 41.3342 0.770296 43.5 2.02073L71.141 17.9793C73.3068 19.2297 74.641 21.5406 74.641 24.0415V55.9585C74.641 58.4594 73.3068 60.7703 71.141 62.0207L43.5 77.9793C41.3342 79.2297 38.6658 79.2297 36.5 77.9793L8.85898 62.0207C6.69317 60.7703 5.35898 58.4594 5.35898 55.9585V24.0415C5.35898 21.5406 6.69317 19.2297 8.85898 17.9793L36.5 2.02073Z" fill="#2F80ED"/>
<path id="Vector" d="M45.6667 22.2C45.6667 21.8817 45.5438 21.5765 45.325 21.3515C45.1062 21.1264 44.8094 21 44.5 21H37.5C37.1906 21 36.8938 21.1264 36.675 21.3515C36.4562 21.5765 36.3333 21.8817 36.3333 22.2C36.3333 22.5183 36.2104 22.8235 35.9916 23.0485C35.7728 23.2736 35.4761 23.4 35.1667 23.4C34.8572 23.4 34.5605 23.5264 34.3417 23.7515C34.1229 23.9765 34 24.2817 34 24.6V25.8C34 26.1183 34.1229 26.4235 34.3417 26.6485C34.5605 26.8736 34.8572 27 35.1667 27H46.8333C47.1428 27 47.4395 26.8736 47.6583 26.6485C47.8771 26.4235 48 26.1183 48 25.8V24.6C48 24.2817 47.8771 23.9765 47.6583 23.7515C47.4395 23.5264 47.1428 23.4 46.8333 23.4C46.5239 23.4 46.2272 23.2736 46.0084 23.0485C45.7896 22.8235 45.6667 22.5183 45.6667 22.2Z" fill="white"/>
<path id="Vector_2" d="M31.0388 23H29.625C28.6636 23 27.7416 23.3793 27.0617 24.0544C26.3819 24.7295 26 25.6452 26 26.6V55.4C26 56.3548 26.3819 57.2705 27.0617 57.9456C27.7416 58.6207 28.6636 59 29.625 59H51.375C52.3364 59 53.2584 58.6207 53.9383 57.9456C54.6181 57.2705 55 56.3548 55 55.4V26.6C55 25.6452 54.6181 24.7295 53.9383 24.0544C53.2584 23.3793 52.3364 23 51.375 23H49.9613C50.0966 23.3776 50.1651 23.7776 50.1667 24.2V25.4C50.1667 26.3548 49.7847 27.2705 49.1049 27.9456C48.4251 28.6207 47.5031 29 46.5417 29H34.4583C33.4969 29 32.5749 28.6207 31.8951 27.9456C31.2153 27.2705 30.8333 26.3548 30.8333 25.4V24.2C30.8349 23.7776 30.9034 23.3776 31.0388 23ZM47.3972 39.4496L40.1472 46.6496C40.0349 46.7614 39.9016 46.85 39.7548 46.9105C39.608 46.971 39.4506 47.0021 39.2917 47.0021C39.1327 47.0021 38.9754 46.971 38.8286 46.9105C38.6818 46.85 38.5484 46.7614 38.4362 46.6496L34.8112 43.0496C34.6988 42.938 34.6097 42.8056 34.5489 42.6598C34.4881 42.514 34.4568 42.3578 34.4568 42.2C34.4568 42.0422 34.4881 41.886 34.5489 41.7402C34.6097 41.5944 34.6988 41.462 34.8112 41.3504C35.0381 41.1251 35.3458 40.9985 35.6667 40.9985C35.8255 40.9985 35.9829 41.0296 36.1297 41.0899C36.2764 41.1503 36.4098 41.2388 36.5222 41.3504L39.2917 44.1032L45.6862 37.7504C45.9131 37.5251 46.2208 37.3985 46.5417 37.3985C46.8625 37.3985 47.1703 37.5251 47.3972 37.7504C47.6241 37.9757 47.7515 38.2813 47.7515 38.6C47.7515 38.9187 47.6241 39.2243 47.3972 39.4496Z" fill="white"/>
</g>
</svg>
